<svg xmlns="http://www.w3.org/2000/svg" version="1.1" width="551px" height="245px" style="shape-rendering:geometricPrecision; text-rendering:geometricPrecision; image-rendering:optimizeQuality; fill-rule:evenodd; clip-rule:evenodd" xmlns:xlink="http://www.w3.org/1999/xlink">
<g><path style="opacity:0.999" fill="#000000" d="M -0.5,-0.5 C 15.5,-0.5 31.5,-0.5 47.5,-0.5C 59.3121,64.0652 70.8121,128.732 82,193.5C 93.708,128.919 104.875,64.2519 115.5,-0.5C 131.5,-0.5 147.5,-0.5 163.5,-0.5C 148.038,78.1427 132.705,156.809 117.5,235.5C 94.8235,235.833 72.1569,235.5 49.5,234.5C 32.8008,157.718 16.1341,81.0517 -0.5,4.5C -0.5,2.83333 -0.5,1.16667 -0.5,-0.5 Z"/></g>
<g><path style="opacity:1" fill="#000000" d="M 340.5,-0.5 C 354.5,-0.5 368.5,-0.5 382.5,-0.5C 382.5,13.1667 382.5,26.8333 382.5,40.5C 368.5,40.5 354.5,40.5 340.5,40.5C 340.5,26.8333 340.5,13.1667 340.5,-0.5 Z"/></g>
<g><path style="opacity:1" fill="#000000" d="M 421.5,-0.5 C 435.5,-0.5 449.5,-0.5 463.5,-0.5C 463.5,65.8333 463.5,132.167 463.5,198.5C 492.167,198.5 520.833,198.5 549.5,198.5C 549.5,210.833 549.5,223.167 549.5,235.5C 506.833,235.5 464.167,235.5 421.5,235.5C 421.5,156.833 421.5,78.1667 421.5,-0.5 Z"/></g>
<g><path style="opacity:1" fill="#000000" d="M 228.5,53.5 C 245.268,52.2603 261.268,55.0937 276.5,62C 290.266,70.6817 298.099,83.1817 300,99.5C 300.5,117.164 300.667,134.83 300.5,152.5C 272.833,152.5 245.167,152.5 217.5,152.5C 217.333,167.504 217.5,182.504 218,197.5C 221.734,206.217 228.4,210.55 238,210.5C 247.21,210.603 253.877,206.603 258,198.5C 259.239,192.565 259.739,186.565 259.5,180.5C 273.167,180.5 286.833,180.5 300.5,180.5C 302.437,199.189 297.103,215.356 284.5,229C 270.818,238.759 255.484,243.593 238.5,243.5C 223.08,243.562 208.747,239.729 195.5,232C 183.856,222.213 177.356,209.713 176,194.5C 175.333,163.833 175.333,133.167 176,102.5C 178.015,77.4876 191.182,61.9876 215.5,56C 219.988,55.2398 224.322,54.4065 228.5,53.5 Z M 231.5,86.5 C 241.218,84.684 249.384,87.3507 256,94.5C 257.75,97.2464 258.75,100.246 259,103.5C 259.5,109.825 259.666,116.158 259.5,122.5C 245.5,122.5 231.5,122.5 217.5,122.5C 217.09,113.75 217.59,105.084 219,96.5C 221.887,91.4341 226.054,88.1008 231.5,86.5 Z"/></g>
<g><path style="opacity:1" fill="#000000" d="M 340.5,56.5 C 354.5,56.5 368.5,56.5 382.5,56.5C 382.5,116.5 382.5,176.5 382.5,236.5C 368.5,236.5 354.5,236.5 340.5,236.5C 340.5,176.5 340.5,116.5 340.5,56.5 Z"/></g>
</svg>
